HIERARCHY
ROOT Hips
{
    OFFSET 0.000000 0.000000 0.000000
    CHANNELS 6 Xposition Yposition Zposition Zrotation Xrotation Yrotation
    JOINT Spine
    {
        OFFSET -0.000000 7.523850 0.000000
        CHANNELS 3 Zrotation Xrotation Yrotation
        JOINT Spine1
        {
            OFFSET -0.000000 21.784267 0.000000
            CHANNELS 3 Zrotation Xrotation Yrotation
            JOINT Neck
            {
                OFFSET -0.000000 21.694805 1.972255
                CHANNELS 3 Zrotation Xrotation Yrotation
                JOINT Head
                {
                    OFFSET -0.000000 12.845598 -1.835085
                    CHANNELS 3 Zrotation Xrotation Yrotation
                    End Site
                    {
                        OFFSET -0.000000 22.938568 0.000000
                    }
                }
            }
            JOINT LeftShoulder
            {
                OFFSET 3.657477 19.705200 -0.211895
                CHANNELS 3 Zrotation Xrotation Yrotation
                JOINT LeftArm
                {
                    OFFSET 11.195261 0.000000 0.000000
                    CHANNELS 3 Zrotation Xrotation Yrotation
                    JOINT LeftForeArm
                    {
                        OFFSET 29.660666 0.000000 0.000000
                        CHANNELS 3 Zrotation Xrotation Yrotation
                        JOINT LeftHand
                        {
                            OFFSET 23.347620 0.000000 0.000000
                            CHANNELS 3 Zrotation Xrotation Yrotation
                            End Site
                            {
                                OFFSET 13.763142 0.000000 0.000000
                            }
                        }
                    }
                }
            }
            JOINT RightShoulder
            {
                OFFSET -3.680529 19.705200 -0.211895
                CHANNELS 3 Zrotation Xrotation Yrotation
                JOINT RightArm
                {
                    OFFSET -11.195261 0.000000 0.000000
                    CHANNELS 3 Zrotation Xrotation Yrotation
                    JOINT RightForeArm
                    {
                        OFFSET -29.660666 0.000000 0.000000
                        CHANNELS 3 Zrotation Xrotation Yrotation
                        JOINT RightHand
                        {
                            OFFSET -23.347620 0.000000 0.000000
                            CHANNELS 3 Zrotation Xrotation Yrotation
                            End Site
                            {
                                OFFSET -13.763142 0.000000 0.000000
                            }
                        }
                    }
                }
            }
        }
    }
    JOINT LeftUpLeg
    {
        OFFSET 9.175427 0.000000 0.000000
        CHANNELS 3 Zrotation Xrotation Yrotation
        JOINT LeftLeg
        {
            OFFSET -0.000000 -39.121593 0.000000
            CHANNELS 3 Zrotation Xrotation Yrotation
            JOINT LeftFoot
            {
                OFFSET -0.000000 -35.356884 0.000000
                CHANNELS 3 Zrotation Xrotation Yrotation
                JOINT LeftToeBase
                {
                    OFFSET -0.000000 -5.964027 13.763142
                    CHANNELS 3 Zrotation Xrotation Yrotation
                    End Site
                    {
                        OFFSET -0.000000 0.000000 3.670171
                    }
                }
            }
        }
    }
    JOINT RightUpLeg
    {
        OFFSET -9.175427 0.000000 0.000000
        CHANNELS 3 Zrotation Xrotation Yrotation
        JOINT RightLeg
        {
            OFFSET -0.000000 -39.121593 0.000000
            CHANNELS 3 Zrotation Xrotation Yrotation
            JOINT RightFoot
            {
                OFFSET -0.000000 -35.356884 0.000000
                CHANNELS 3 Zrotation Xrotation Yrotation
                JOINT RightToeBase
                {
                    OFFSET -0.000000 -5.964027 13.763142
                    CHANNELS 3 Zrotation Xrotation Yrotation
                    End Site
                    {
                        OFFSET -0.000000 0.000000 3.670171
                    }
                }
            }
        }
    }
}
MOTION
Frames:    7
Frame Time:    0.004000
2.248784    76.366119    -211.878708    -0.068587    -2.749967    4.824921    0.021453    -1.125636    -0.105398    1.863571    -3.981199    -0.040904    -2.298378    8.378663    -2.614958    1.359669    5.479675    -2.424184    17.375757    -2.873389    -4.409527    -20.418064    8.907661    0.788584    3.278409    -1.836307    -3.449044    -9.508456    -1.409505    -3.945207    -17.659801    0.346368    -0.752186    22.622297    6.053641    7.530932    -1.078265    -4.964814    1.061326    -0.601366    -4.992474    7.182664    2.812691    3.174968    -0.600814    -0.389715    5.117439    1.664303    -2.168591    -5.108887    11.953915    0.000000    0.000000    0.000000    -3.756490    2.083763    2.876221    1.546712    7.502452    2.693561    2.372180    -7.041492    -21.342466    0.000000    0.000000    0.000000    
2.246510    76.367462    -211.877945    -0.071989    -2.748003    4.821063    0.023133    -1.131287    -0.105842    1.863050    -3.980455    -0.041542    -2.308026    8.413936    -2.600205    1.376364    5.428749    -2.406629    17.389530    -2.820188    -4.484219    -20.434942    8.864326    0.866231    3.299849    -1.845475    -3.478596    -9.529254    -1.415632    -3.955148    -17.648981    0.345681    -0.747450    22.614689    6.068077    7.533117    -1.081074    -4.964540    1.061206    -0.603477    -4.992180    7.159853    2.814107    3.184010    -0.582572    -0.379658    5.098164    1.651759    -2.157652    -5.101243    11.948738    0.000000    0.000000    0.000000    -3.750491    2.082119    2.884682    1.542179    7.500889    2.719408    2.385687    -7.042200    -21.369131    0.000000    0.000000    0.000000    
2.243683    76.366142    -211.880493    -0.072112    -2.745191    4.825947    -0.002355    -1.137388    -0.112800    1.895862    -3.976550    -0.046971    -2.299689    8.468231    -2.590469    1.362979    5.343432    -2.398554    17.402567    -2.816810    -4.493609    -20.454494    8.869905    0.874758    3.312406    -1.868355    -3.492613    -9.519426    -1.439570    -3.937431    -17.653679    0.347591    -0.722226    22.609026    6.063966    7.519496    -1.072502    -4.952543    1.054841    -0.595866    -4.979992    7.188302    2.819540    3.174417    -0.602967    -0.384357    5.108643    1.620924    -2.183310    -5.113291    11.988404    0.000000    0.000000    0.000000    -3.747790    2.078972    2.868273    1.539558    7.494838    2.706541    2.388283    -7.038312    -21.348759    0.000000    0.000000    0.000000    
2.242849    76.367188    -211.880539    -0.068664    -2.746016    4.817840    0.014835    -1.129762    -0.107753    1.869283    -3.985436    -0.043326    -2.336282    8.547381    -2.582513    1.421847    5.214954    -2.381999    17.378973    -2.882753    -4.419196    -20.398733    8.974844    0.785170    3.312006    -1.857992    -3.459111    -9.557455    -1.427599    -3.952650    -17.651150    0.346835    -0.735236    22.615593    6.063896    7.539024    -1.067181    -4.940061    1.041258    -0.601586    -4.968083    7.194378    2.813125    3.174978    -0.596328    -0.384129    5.103856    1.663748    -2.160621    -5.093756    11.953300    0.000000    0.000000    0.000000    -3.754927    2.079060    2.889227    1.549110    7.498108    2.694110    2.372218    -7.039912    -21.345602    0.000000    0.000000    0.000000    
2.238883    76.367386    -211.878204    -0.070212    -2.757954    4.815269    0.011168    -1.119894    -0.109142    1.878589    -3.986646    -0.043761    -2.344170    8.565834    -2.570060    1.417280    5.189299    -2.369014    17.383442    -2.886422    -4.434963    -20.395544    8.971656    0.799384    3.301737    -1.871144    -3.465368    -9.508522    -1.443062    -3.947168    -17.666002    0.347093    -0.725406    22.629869    6.066357    7.535878    -1.060003    -4.938093    1.042768    -0.598817    -4.965918    7.179265    2.821926    3.189900    -0.584722    -0.391851    5.111923    1.623314    -2.130615    -5.103338    11.995234    0.000000    0.000000    0.000000    -3.747544    2.091664    2.885218    1.543859    7.499555    2.713888    2.375586    -7.043981    -21.364445    0.000000    0.000000    0.000000    
2.237739    76.366768    -211.880585    -0.069140    -2.751699    4.816584    0.006232    -1.124452    -0.111406    1.883482    -3.986456    -0.045887    -2.345560    8.639294    -2.555712    1.423504    5.065784    -2.353366    17.391621    -2.836028    -4.509483    -20.408962    8.904251    0.877581    3.319726    -1.890266    -3.507791    -9.512738    -1.460784    -3.940859    -17.667356    0.340144    -0.723755    22.631514    6.075383    7.539064    -1.063957    -4.931077    1.036112    -0.601148    -4.959028    7.171955    2.813755    3.189570    -0.586178    -0.373043    5.088265    1.659090    -2.188177    -5.102877    11.955644    0.000000    0.000000    0.000000    -3.748971    2.083613    2.881449    1.545812    7.497069    2.685970    2.382937    -7.039907    -21.333775    0.000000    0.000000    0.000000    
2.233102    76.367447    -211.880875    -0.074279    -2.753099    4.815672    0.001561    -1.124854    -0.111012    1.891984    -3.990867    -0.044924    -2.352863    8.695585    -2.547019    1.435579    4.993134    -2.342928    17.386150    -2.885068    -4.453601    -20.381325    8.981596    0.795147    3.317548    -1.897656    -3.467449    -9.516516    -1.467036    -3.967641    -17.660147    0.355347    -0.715195    22.625162    6.070595    7.541232    -1.061201    -4.915973    1.025872    -0.585059    -4.943074    7.177526    2.827600    3.187113    -0.585580    -0.385384    5.095337    1.659253    -2.033931    -5.098017    11.939481    0.000000    0.000000    0.000000    -3.740354    2.081649    2.876804    1.543302    7.504536    2.714080    2.404287    -7.048604    -21.349627    0.000000    0.000000    0.000000    
